<?xml version="1.0" standalone="no"?><!DOCTYPE svg PUBLIC "-//W3C//DTD SVG 1.1//EN" "http://www.w3.org/Graphics/SVG/1.1/DTD/svg11.dtd"><svg t="1593081936787" class="icon" viewBox="0 0 1024 1024" version="1.1" xmlns="http://www.w3.org/2000/svg" p-id="2543" xmlns:xlink="http://www.w3.org/1999/xlink" width="200" height="200"><defs><style type="text/css"></style></defs><path d="M853.333333 1024L512 810.666667 170.666667 1024a42.666667 42.666667 0 0 1-42.666667-42.666667V42.666667a42.666667 42.666667 0 0 1 42.666667-42.666667h682.666666a42.666667 42.666667 0 0 1 42.666667 42.666667v938.666666a42.666667 42.666667 0 0 1-42.666667 42.666667z m0-960a21.333333 21.333333 0 0 0-21.333333-21.333333H192a21.333333 21.333333 0 0 0-21.333333 21.333333v874.666667a21.333333 21.333333 0 0 0 21.333333 21.333333l318.229333-213.333333L832 960a21.333333 21.333333 0 0 0 21.333333-21.333333V64z m-196.266666 554.794667L512 561.536l-145.066667 57.258667 12.138667-149.589334-101.802667-114.176 152.576-35.2L512 192l82.154667 127.829333 152.576 35.2-101.802667 114.176zM682.666667 370.112l-110.933334-24.618667L512 256l-59.733333 89.493333-110.933334 24.618667 74.048 79.936-8.96 104.618667L512 514.666667 617.429333 554.666667l-8.832-104.704z" p-id="2544"></path></svg>